<svg version="1.1" xmlns="http://www.w3.org/2000/svg" xmlns:xlink="http://www.w3.org/1999/xlink" width="30" height="24" viewBox="0,0,256,204.79688"><g fill="#e6f5ea" fill-rule="nonzero" stroke="none" stroke-width="1" stroke-linecap="butt" stroke-linejoin="miter" stroke-miterlimit="10" stroke-dasharray="" stroke-dashoffset="0" font-family="none" font-weight="none" font-size="none" text-anchor="none" style="mix-blend-mode: normal"><g transform="translate(1.01663,0.8794) scale(8.53333,8.53333)"><path d="M6.17944,9.50105c0.36602,-2.28484 3.2419,-4.72547 5.49026,-4.7774c0.1569,0 0.3138,-0.05193 0.4184,-0.15578c0.1045,-0.05193 0.2091,-0.10386 0.2614,-0.25965c0.7843,-1.45399 0.366,-2.59641 -0.9412,-3.53112c-1.51636,-1.09049 -3.92164,0 -5.12428,0.98664c-3.03274,2.49256 -6.11777,6.80252 -5.9609,10.90496c-0.52289,2.7523 -0.41831,5.7121 0.36602,8.1527c0.52288,1.5579 2.03925,2.3368 3.60791,2.4407c1.56866,0.1039 4.81056,0.5712 6.22235,-0.3635c1.4118,-0.9348 1.5164,-2.7522 1.6732,-4.31c0.1569,-1.7136 0.6275,-4.9333 -0.8366,-6.2834c-1.46406,-1.2982 -5.64715,0.1038 -5.17656,-2.80415z"></path><path d="M23.1963,9.50105c0.366,-2.28484 3.2418,-4.72547 5.4903,-4.7774c0.1569,0 0.3137,-0.05193 0.4183,-0.15578c0.1047,-0.05193 0.2092,-0.10386 0.2615,-0.25965c0.7844,-1.45399 0.3661,-2.59641 -0.9412,-3.53112c-1.5163,-1.09049 -3.9216,0 -5.1243,0.98664c-3.0328,2.49256 -6.1178,6.8026 -5.9609,10.90496c-0.5229,2.7523 -0.4183,5.7121 0.3659,8.1527c0.5229,1.5579 2.0393,2.3368 3.608,2.4407c1.5687,0.1039 4.8106,0.5712 6.2224,-0.3635c1.4117,-0.9348 1.5163,-2.7522 1.6732,-4.31c0.1569,-1.7136 0.6275,-4.9333 -0.8366,-6.2834c-1.4641,-1.2982 -5.6995,0.1038 -5.1766,-2.80415z"></path></g></g></svg>