<svg width="8" height="16" viewBox="0 0 8 16" fill="none" xmlns="http://www.w3.org/2000/svg">
<path d="M4.7385 0.510184C3.69164 0.673516 2.86797 1.28673 2.43222 2.2266C2.1187 2.90859 2.05493 3.32408 2.05493 4.73676V5.73681H1.1542C0.654685 5.73681 0.221594 5.74827 0.187053 5.7626C0.149854 5.77979 0.0940574 5.81991 0.0648303 5.85429C0.0090332 5.91733 0.0090332 5.93739 0.0090332 7.23832C0.0090332 8.44755 0.0143472 8.56503 0.0568593 8.61948C0.147197 8.74269 0.181739 8.74556 1.1356 8.74556H2.05493V11.8403V14.935L2.13198 15.0267L2.20903 15.1212L3.4472 15.1298C4.53923 15.1356 4.69599 15.1327 4.76773 15.0926C4.93246 15.0009 4.92449 15.1442 4.92449 11.7973V8.74556H5.98729C6.75251 8.74556 7.06604 8.73696 7.11652 8.71117C7.26266 8.63954 7.26266 8.62807 7.26266 7.22972V5.93739L7.1856 5.8457L7.10855 5.75114L6.01386 5.74254L4.92184 5.73394L4.92981 4.8084L4.93778 3.88571L5.01749 3.71665C5.10517 3.53326 5.2513 3.41004 5.44792 3.35273C5.50372 3.33554 5.89696 3.31835 6.31942 3.31262C6.74454 3.30402 7.11918 3.29256 7.15106 3.28396C7.1856 3.27537 7.24406 3.23525 7.2786 3.19513L7.34237 3.12063V1.88275C7.34237 0.667786 7.34237 0.644862 7.28657 0.581821C7.25734 0.547436 7.20155 0.507318 7.16435 0.490126C7.05807 0.447144 5.03609 0.464336 4.7385 0.510184Z" fill="#00730C"/>
</svg>
