<svg version="1.1" xmlns="http://www.w3.org/2000/svg" xmlns:xlink="http://www.w3.org/1999/xlink" width="8" height="16" viewBox="0,0,128,256"><g fill="#ffffff" fill-rule="nonzero" stroke="none" stroke-width="1" stroke-linecap="butt" stroke-linejoin="miter" stroke-miterlimit="10" stroke-dasharray="" stroke-dashoffset="0" font-family="none" font-weight="none" font-size="none" text-anchor="none" style="mix-blend-mode: normal"><g transform="translate(5.18877,3.22006) scale(16,16)"><path d="M4.7385,0.51018c-1.04686,0.16333 -1.87053,0.77655 -2.30628,1.71642c-0.31352,0.68199 -0.37729,1.09748 -0.37729,2.51016v1.00005h-0.90073c-0.49951,0 -0.93261,0.01146 -0.96715,0.02579c-0.0372,0.01719 -0.093,0.05731 -0.12222,0.09169c-0.0558,0.06304 -0.0558,0.0831 -0.0558,1.38403c0,1.20923 0.00531,1.32671 0.04783,1.38116c0.09034,0.12321 0.12488,0.12608 1.07874,0.12608h0.91933v3.09474v3.0947l0.07705,0.0917l0.07705,0.0945l1.23817,0.0086c1.09203,0.0058 1.24879,0.0029 1.32053,-0.0372c0.16473,-0.0917 0.15676,0.0516 0.15676,-3.2953v-3.05174h1.0628c0.76522,0 1.07875,-0.0086 1.12923,-0.03439c0.14614,-0.07163 0.14614,-0.0831 0.14614,-1.48145v-1.29233l-0.07706,-0.09169l-0.07705,-0.09456l-1.09469,-0.0086l-1.09202,-0.0086l0.00797,-0.92554l0.00797,-0.92269l0.07971,-0.16906c0.08768,-0.18339 0.23381,-0.30661 0.43043,-0.36392c0.0558,-0.01719 0.44904,-0.03438 0.8715,-0.04011c0.42512,-0.0086 0.79976,-0.02006 0.83164,-0.02866c0.03454,-0.00859 0.093,-0.04871 0.12754,-0.08883l0.06377,-0.0745v-1.23788c0,-1.21496 0,-1.23789 -0.0558,-1.30093c-0.02923,-0.03438 -0.08502,-0.0745 -0.12222,-0.0917c-0.10628,-0.04298 -2.12826,-0.02579 -2.42585,0.02006z"></path></g></g></svg>