<svg version="1.1" xmlns="http://www.w3.org/2000/svg" xmlns:xlink="http://www.w3.org/1999/xlink" width="20" height="13" viewBox="0,0,256,166.39063"><g fill="#ffffff" fill-rule="nonzero" stroke="none" stroke-width="1" stroke-linecap="butt" stroke-linejoin="miter" stroke-miterlimit="10" stroke-dasharray="" stroke-dashoffset="0" font-family="none" font-weight="none" font-size="none" text-anchor="none" style="mix-blend-mode: normal"><g transform="translate(-2.68061,-1.64295) scale(12.8,12.8)"><path d="M17.7551,5.49363v-2.15501h-1.1224v2.15501h-2.2448v1.0775h2.2448v2.155h1.1224v-2.155h2.2448v-1.0775z"></path><path d="M6.75228,5.36134v2.53334h3.58342c-0.52315,1.4744 -1.93169,2.53332 -3.58342,2.53332c-2.09507,0 -3.8,-1.70492 -3.8,-3.79999c0,-2.09507 1.70493,-3.8 3.8,-3.8c0.9082,0 1.7822,0.32553 2.46113,0.91707l1.66439,-1.91014c-1.13999,-0.99306 -2.60425,-1.54026 -4.12552,-1.54026c-3.4922,0 -6.33333,2.84113 -6.33333,6.33333c0,3.49219 2.84114,6.33329 6.33334,6.33329c3.49222,0 6.33332,-2.8411 6.33332,-6.33329v-1.26667z"></path></g></g></svg>