<svg version="1.1" xmlns="http://www.w3.org/2000/svg" xmlns:xlink="http://www.w3.org/1999/xlink" width="15" height="15" viewBox="0,0,256,256"><g fill="#ffffff" fill-rule="nonzero" stroke="none" stroke-width="1" stroke-linecap="butt" stroke-linejoin="miter" stroke-miterlimit="10" stroke-dasharray="" stroke-dashoffset="0" font-family="none" font-weight="none" font-size="none" text-anchor="none" style="mix-blend-mode: normal"><g transform="translate(2.10154,-0.9234) scale(17.06667,17.06667)"><path d="M14.0837,14.3316v-0.0005h0.0034v-4.89004c0,-2.39223 -0.515,-4.23501 -3.3117,-4.23501c-1.34444,0 -2.24666,0.73778 -2.615,1.43723h-0.03888v-1.21389h-2.65167v8.90171h2.76111v-4.40782c0,-1.16056 0.22,-2.28278 1.65722,-2.28278c1.41612,0 1.43722,1.32445 1.43722,2.35722v4.33388z"></path><path d="M0.88721,5.42993h2.76444v8.90167h-2.76444z"></path><path d="M2.26774,0.77661c-0.88389,0 -1.60111,0.71722 -1.60111,1.60111c0,0.88389 0.71722,1.61612 1.60111,1.61612c0.88389,0 1.60111,-0.73223 1.60111,-1.61612c-0.00056,-0.88389 -0.71778,-1.60111 -1.60111,-1.60111z"></path></g></g></svg>