<svg version="1.1" xmlns="http://www.w3.org/2000/svg" xmlns:xlink="http://www.w3.org/1999/xlink" width="20" height="21" viewBox="0,0,243.79688,256"><defs><clipPath id="clip-1"><rect x="0" y="0.5" width="20" height="20" id="clip0_7965_8594" fill="none"></rect></clipPath></defs><g fill="none" fill-rule="nonzero" stroke="none" stroke-width="1" stroke-linecap="butt" stroke-linejoin="miter" stroke-miterlimit="10" stroke-dasharray="" stroke-dashoffset="0" font-family="none" font-weight="none" font-size="none" text-anchor="none" style="mix-blend-mode: normal"><g transform="translate(-0.00632,0) scale(12.19048,12.19048)"><g clip-path="url(#clip-1)"><path d="M17.6841,6.66939l-5.2243,-0.48453l-2.0752,-4.81888c-0.1453,-0.33742 -0.62372,-0.33742 -0.76899,0l-2.07524,4.81884l-5.22427,0.48457c-0.36582,0.03391 -0.51363,0.48891 -0.23765,0.73137l3.94172,3.46274l-1.15355,5.1183c-0.08078,0.3584 0.30629,0.6396 0.62215,0.4521l4.51133,-2.6788l4.5113,2.6788c0.3159,0.1875 0.7029,-0.0937 0.6222,-0.4521l-1.1536,-5.1183l3.9418,-3.46274c0.2759,-0.24246 0.1281,-0.69746 -0.2377,-0.73137z" fill="#ffffff"></path><path d="M11.1392,3.11833l-0.7546,-1.75235c-0.1454,-0.33742 -0.62375,-0.33742 -0.76903,0l-2.07524,4.81884l-5.22423,0.48457c-0.36582,0.03391 -0.51363,0.48891 -0.23765,0.73137l3.94172,3.46274l-1.15355,5.1183c-0.08078,0.3584 0.30629,0.6396 0.62215,0.4521l0.60043,-0.3566c0.98434,-6.37185 3.75161,-11.04928 5.05,-12.95897z" fill="#ffffff"></path></g></g></g></svg>