<svg width="17" height="14" viewBox="0 0 17 14" fill="none" xmlns="http://www.w3.org/2000/svg">
<path d="M16.8433 2.21551C16.2483 2.47651 15.6143 2.64951 14.9533 2.73351C15.6333 2.32751 16.1523 1.68951 16.3963 0.920514C15.7623 1.29851 15.0623 1.56551 14.3163 1.71451C13.7143 1.07351 12.8563 0.676514 11.9203 0.676514C10.1043 0.676514 8.64226 2.15051 8.64226 3.95751C8.64226 4.21751 8.66426 4.46751 8.71826 4.70551C5.99126 4.57251 3.57826 3.26551 1.95726 1.27451C1.67426 1.76551 1.50826 2.32751 1.50826 2.93251C1.50826 4.06851 2.09326 5.07551 2.96526 5.65851C2.43826 5.64851 1.92126 5.49551 1.48326 5.25451C1.48326 5.26451 1.48326 5.27751 1.48326 5.29051C1.48326 6.88451 2.62026 8.20851 4.11126 8.51351C3.84426 8.58651 3.55326 8.62151 3.25126 8.62151C3.04126 8.62151 2.82926 8.60951 2.63026 8.56551C3.05526 9.86451 4.26126 10.8195 5.69526 10.8505C4.57926 11.7235 3.16226 12.2495 1.62826 12.2495C1.35926 12.2495 1.10126 12.2375 0.843262 12.2045C2.29626 13.1415 4.01826 13.6765 5.87526 13.6765C11.9113 13.6765 15.2113 8.67651 15.2113 4.34251C15.2113 4.19751 15.2063 4.05751 15.1993 3.91851C15.8503 3.45651 16.3973 2.87951 16.8433 2.21551Z" fill="#00730C"/>
</svg>
