<svg version="1.1" xmlns="http://www.w3.org/2000/svg" xmlns:xlink="http://www.w3.org/1999/xlink" width="17" height="14" viewBox="0,0,256,210.8125"><g fill="#ffffff" fill-rule="nonzero" stroke="none" stroke-width="1" stroke-linecap="butt" stroke-linejoin="miter" stroke-miterlimit="10" stroke-dasharray="" stroke-dashoffset="0" font-family="none" font-weight="none" font-size="none" text-anchor="none" style="mix-blend-mode: normal"><g transform="translate(-5.16941,-2.6635) scale(15.05882,15.05882)"><path d="M16.8433,2.21551c-0.595,0.261 -1.229,0.434 -1.89,0.518c0.68,-0.406 1.199,-1.044 1.443,-1.813c-0.634,0.378 -1.334,0.645 -2.08,0.794c-0.602,-0.641 -1.46,-1.038 -2.396,-1.038c-1.816,0 -3.27804,1.474 -3.27804,3.281c0,0.26 0.022,0.51 0.076,0.748c-2.727,-0.133 -5.14,-1.44 -6.761,-3.431c-0.283,0.491 -0.449,1.053 -0.449,1.658c0,1.136 0.585,2.143 1.457,2.726c-0.527,-0.01 -1.044,-0.163 -1.482,-0.404c0,0.01 0,0.023 0,0.036c0,1.594 1.137,2.918 2.628,3.223c-0.267,0.073 -0.558,0.108 -0.86,0.108c-0.21,0 -0.422,-0.012 -0.621,-0.056c0.425,1.299 1.631,2.25399 3.065,2.28499c-1.116,0.873 -2.533,1.399 -4.067,1.399c-0.269,0 -0.527,-0.012 -0.785,-0.045c1.453,0.937 3.175,1.472 5.032,1.472c6.03604,0 9.33604,-4.99999 9.33604,-9.33399c0,-0.145 -0.005,-0.285 -0.012,-0.424c0.651,-0.462 1.198,-1.039 1.644,-1.703z"></path></g></g></svg>